<svg width="16" height="16" viewBox="0 0 16 16" fill="none" xmlns="http://www.w3.org/2000/svg">
<path fill-rule="evenodd" clip-rule="evenodd" d="M0.00389602 14.8877C-0.022104 15.1837 0.082896 15.4757 0.292896 15.6857C0.481896 15.8737 0.736896 15.9777 0.999896 15.9777C1.0309 15.9777 1.0609 15.9767 1.0909 15.9747L5.2609 15.5957C5.7189 15.5537 6.1499 15.3517 6.4749 15.0267L15.4719 6.0297C16.1999 5.2997 16.1689 4.0817 15.4039 3.3157L15.4029 3.3147L12.6649 0.576702C11.9239 -0.162298 10.6509 -0.197298 9.9489 0.507702L0.952896 9.5037C0.626896 9.8297 0.424896 10.2607 0.382896 10.7177L0.00389602 14.8877ZM9.3239 3.9617L12.0189 6.6567L13.9659 4.7067L11.2719 2.0127L9.3239 3.9617ZM2.1029 13.8737L5.0799 13.6027L10.6799 7.9977L7.9839 5.3007L2.3669 10.9177L2.1029 13.8737Z" fill="#393939" fill-opacity="0.7"/>
</svg>
