<svg width="14" height="13" viewBox="0 0 14 13" fill="none" xmlns="http://www.w3.org/2000/svg">
<path d="M7.00065 3.79159C6.857 3.79159 6.71922 3.84865 6.61764 3.95024C6.51606 4.05182 6.45899 4.18959 6.45899 4.33325V6.49992C6.45899 6.64358 6.51606 6.78135 6.61764 6.88294C6.71922 6.98452 6.857 7.04159 7.00065 7.04159C7.14431 7.04159 7.28209 6.98452 7.38367 6.88294C7.48525 6.78135 7.54232 6.64358 7.54232 6.49992V4.33325C7.54232 4.18959 7.48525 4.05182 7.38367 3.95024C7.28209 3.84865 7.14431 3.79159 7.00065 3.79159ZM7.49899 8.46075C7.48713 8.42623 7.47074 8.39345 7.45024 8.36325L7.38524 8.282C7.30907 8.20684 7.21234 8.15593 7.10726 8.13568C7.00218 8.11544 6.89346 8.12677 6.79482 8.16825C6.72918 8.19568 6.66872 8.23416 6.61607 8.282C6.56587 8.33262 6.52615 8.39264 6.49919 8.45864C6.47224 8.52463 6.45857 8.5953 6.45899 8.66659C6.45984 8.73737 6.47457 8.8073 6.50232 8.87242C6.52665 8.93964 6.56546 9.00068 6.61601 9.05123C6.66656 9.10178 6.7276 9.14059 6.79482 9.16492C6.85966 9.19358 6.92977 9.20838 7.00065 9.20838C7.07154 9.20838 7.14165 9.19358 7.20649 9.16492C7.27371 9.14059 7.33475 9.10178 7.3853 9.05123C7.43585 9.00068 7.47466 8.93964 7.49899 8.87242C7.52674 8.8073 7.54146 8.73737 7.54232 8.66659C7.54498 8.63052 7.54498 8.59431 7.54232 8.55825C7.53299 8.52371 7.51838 8.49082 7.49899 8.46075ZM7.00065 1.08325C5.92934 1.08325 4.88208 1.40093 3.99131 1.99612C3.10055 2.59132 2.40628 3.43728 1.99631 4.42705C1.58633 5.41682 1.47906 6.50593 1.68807 7.55666C1.89707 8.60739 2.41296 9.57255 3.17049 10.3301C3.92803 11.0876 4.89318 11.6035 5.94391 11.8125C6.99465 12.0215 8.08376 11.9142 9.07352 11.5043C10.0633 11.0943 10.9093 10.4 11.5044 9.50926C12.0996 8.61849 12.4173 7.57123 12.4173 6.49992C12.4173 5.78859 12.2772 5.08423 12.005 4.42705C11.7328 3.76987 11.3338 3.17274 10.8308 2.66976C10.3278 2.16677 9.7307 1.76778 9.07352 1.49557C8.41634 1.22336 7.71198 1.08325 7.00065 1.08325ZM7.00065 10.8333C6.1436 10.8333 5.3058 10.5791 4.59318 10.103C3.88057 9.6268 3.32516 8.95003 2.99718 8.15821C2.6692 7.3664 2.58338 6.49511 2.75058 5.65453C2.91779 4.81394 3.3305 4.04182 3.93652 3.43579C4.54255 2.82976 5.31468 2.41705 6.15526 2.24985C6.99585 2.08265 7.86714 2.16846 8.65895 2.49644C9.45076 2.82442 10.1275 3.37983 10.6037 4.09245C11.0798 4.80506 11.334 5.64287 11.334 6.49992C11.334 7.64919 10.8774 8.75139 10.0648 9.56405C9.25213 10.3767 8.14993 10.8333 7.00065 10.8333Z" fill="#005CAA" stroke="#005CAA" stroke-width="0.5"/>
</svg>
