<svg width="93" height="92" viewBox="0 0 93 92" fill="none" xmlns="http://www.w3.org/2000/svg">
<g filter="url(#filter0_d_30_4382)">
<circle cx="46.3359" cy="44" r="36" fill="white"/>
</g>
<path fill-rule="evenodd" clip-rule="evenodd" d="M33.0059 44C33.0059 44.7364 33.6028 45.3334 34.3392 45.3334L45.0059 45.3334L45.0059 56C45.0059 56.7364 45.6029 57.3334 46.3393 57.3334C47.0757 57.3334 47.6726 56.7364 47.6726 56L47.6726 45.3334L58.3392 45.3334C59.0756 45.3334 59.6725 44.7364 59.6725 44C59.6725 43.2637 59.0756 42.6667 58.3392 42.6667L47.6726 42.6667L47.6726 32C47.6726 31.2637 47.0757 30.6667 46.3393 30.6667C45.6029 30.6667 45.0059 31.2637 45.0059 32L45.0059 42.6667L34.3392 42.6667C33.6028 42.6667 33.0059 43.2637 33.0059 44Z" fill="#1C1C1E"/>
<defs>
<filter id="filter0_d_30_4382" x="0.335938" y="0" width="92" height="92" filterUnits="userSpaceOnUse" color-interpolation-filters="sRGB">
<feFlood flood-opacity="0" result="BackgroundImageFix"/>
<feColorMatrix in="SourceAlpha" type="matrix" values="0 0 0 0 0 0 0 0 0 0 0 0 0 0 0 0 0 0 127 0" result="hardAlpha"/>
<feOffset dy="2"/>
<feGaussianBlur stdDeviation="5"/>
<feColorMatrix type="matrix" values="0 0 0 0 0 0 0 0 0 0 0 0 0 0 0 0 0 0 0.1 0"/>
<feBlend mode="normal" in2="BackgroundImageFix" result="effect1_dropShadow_30_4382"/>
<feBlend mode="normal" in="SourceGraphic" in2="effect1_dropShadow_30_4382" result="shape"/>
</filter>
</defs>
</svg>
