<svg width="93" height="92" viewBox="0 0 93 92" fill="none" xmlns="http://www.w3.org/2000/svg">
<g filter="url(#filter0_d_3048_33250)">
<circle cx="46.8359" cy="44" r="36" fill="white"/>
</g>
<path fill-rule="evenodd" clip-rule="evenodd" d="M35.7086 46.1554V55.2877H59.2921V46.1554H60.8644V56.1438C60.8644 56.6167 60.5124 57 60.0783 57H34.9225C34.4883 57 34.1364 56.6167 34.1364 56.1438V46.1554H35.7086Z" fill="black"/>
<path fill-rule="evenodd" clip-rule="evenodd" d="M38.6469 32.2026C38.7734 32.0725 38.9408 32 39.1147 32H55.3612C55.5288 32 55.6905 32.0673 55.8155 32.189L65.773 41.8921C65.9835 42.0972 66.0559 42.4225 65.9551 42.7099C65.8543 42.9972 65.6011 43.1871 65.3187 43.1871H29.6813C29.4022 43.1871 29.1513 43.0017 29.0482 42.7192C28.9451 42.4367 29.0106 42.1143 29.2135 41.9056L38.6469 32.2026ZM39.3856 33.484L31.395 41.7031H63.5355L55.1009 33.484H39.3856Z" fill="black"/>
<path fill-rule="evenodd" clip-rule="evenodd" d="M37.4379 47.4681H44.9846V56.1438H43.7269V48.838H38.6957V56.1438H37.4379V47.4681Z" fill="black"/>
<path fill-rule="evenodd" clip-rule="evenodd" d="M38.4036 42.0805L42.5962 32.3775L44.0188 33.1065L39.8262 42.8096L38.4036 42.0805ZM55.1741 42.8096L50.9815 33.1065L52.4041 32.3775L56.5967 42.0805L55.1741 42.8096ZM46.7141 42.4451V32.742H48.2863V42.4451H46.7141Z" fill="black"/>
<path fill-rule="evenodd" clip-rule="evenodd" d="M38.625 42.3104L39.2889 40.4014L39.6296 42.4066V42.4066L39.6298 42.4081L39.6331 42.4242C39.6365 42.4405 39.6424 42.4677 39.6516 42.5041C39.67 42.577 39.7011 42.6864 39.7495 42.8199C39.8466 43.0881 40.0111 43.4467 40.2784 43.8043C40.7987 44.5006 41.7447 45.245 43.4893 45.245C45.2277 45.245 46.1053 44.4905 46.5658 43.7961C46.8045 43.4363 46.9425 43.0743 47.0204 42.8018C47.0592 42.6663 47.0825 42.5552 47.0957 42.4809C47.1023 42.4439 47.1064 42.4163 47.1086 42.3996L47.1107 42.3832L47.1132 42.3845L48.1398 42.3152L48.142 42.3145L48.1466 42.3337C48.1511 42.3517 48.1586 42.3808 48.1697 42.4195C48.1919 42.4969 48.2281 42.6118 48.2817 42.7516C48.3895 43.0325 48.5647 43.4062 48.8328 43.7776C49.3586 44.5062 50.251 45.245 51.7741 45.245C53.2968 45.245 54.1803 44.5068 54.6978 43.7804C54.9619 43.4097 55.1334 43.0367 55.2384 42.7561C55.2907 42.6165 55.3257 42.5018 55.3472 42.4245C55.3579 42.3859 55.3652 42.3569 55.3695 42.339L55.3737 42.3207L55.3742 42.3187L55.678 40.8387L56.3447 42.1704L56.3548 42.1896C56.3634 42.2056 56.3773 42.2312 56.3968 42.2652C56.4357 42.3332 56.4965 42.4344 56.5795 42.5593C56.746 42.8094 57.0005 43.1516 57.3469 43.5103C58.0399 44.2277 59.0894 44.9998 60.5363 45.2521C61.8824 45.4869 62.9393 44.7943 63.6992 43.9672C64.077 43.556 64.3668 43.1258 64.5623 42.7967C64.6597 42.6329 64.7326 42.4961 64.7803 42.4019C64.8042 42.3549 64.8217 42.3186 64.8328 42.2951L64.8447 42.2698L64.8469 42.2648C64.8469 42.2648 64.8468 42.2651 65.3187 42.5134C65.7906 42.7617 65.7904 42.7622 65.7904 42.7622L65.7879 42.7677L65.7827 42.7792L65.7646 42.818C65.7491 42.8507 65.7268 42.8967 65.6978 42.9539C65.6398 43.0683 65.5545 43.2282 65.4423 43.417C65.2188 43.7931 64.884 44.2916 64.4401 44.7747C63.5564 45.7364 62.1807 46.6949 60.3706 46.3793C58.6614 46.0813 57.4268 45.168 56.6247 44.3376C56.3865 44.091 56.1853 43.8506 56.02 43.6341C55.8958 43.8969 55.734 44.1881 55.5259 44.4802C54.8427 45.4393 53.6706 46.3865 51.7741 46.3865C49.8782 46.3865 48.6993 45.4399 48.0087 44.4831C47.8883 44.3162 47.783 44.1495 47.6912 43.9883C47.6131 44.1439 47.5219 44.3041 47.4155 44.4645C46.7582 45.4556 45.5647 46.3865 43.4893 46.3865C41.4203 46.3865 40.179 45.4798 39.4655 44.5249C39.2894 44.2893 39.1477 44.054 39.0342 43.8336C38.8872 44.0621 38.7083 44.3089 38.4944 44.5561C37.7041 45.4692 36.4317 46.3865 34.547 46.3865C32.6634 46.3865 31.3222 45.4533 30.4651 44.5379C30.0375 44.0812 29.7265 43.6256 29.5217 43.2832C29.419 43.1115 29.3422 42.9671 29.2902 42.8634C29.2642 42.8115 29.2443 42.7698 29.2304 42.7398L29.2141 42.7038L29.2092 42.6927L29.2076 42.6891L29.2068 42.6871C29.2068 42.6871 29.2065 42.6866 29.6813 42.4449C30.1561 42.2033 30.1559 42.2028 30.1559 42.2028L30.1571 42.2054L30.1664 42.2258C30.1753 42.2452 30.1899 42.2758 30.2101 42.3161C30.2506 42.3968 30.3135 42.5157 30.3999 42.6601C30.5731 42.9497 30.8374 43.3367 31.1989 43.7228C31.9199 44.4928 33.0115 45.245 34.547 45.245C36.0814 45.245 37.0929 44.5112 37.7317 43.7731C38.0539 43.4008 38.2805 43.0274 38.4259 42.748C38.4983 42.6088 38.5499 42.4944 38.5825 42.4171C38.5987 42.3785 38.6102 42.3493 38.6172 42.3311L38.6242 42.3123L38.625 42.3104ZM30.1559 42.2028V42.2028Z" fill="black"/>
<defs>
<filter id="filter0_d_3048_33250" x="0.835938" y="0" width="92" height="92" filterUnits="userSpaceOnUse" color-interpolation-filters="sRGB">
<feFlood flood-opacity="0" result="BackgroundImageFix"/>
<feColorMatrix in="SourceAlpha" type="matrix" values="0 0 0 0 0 0 0 0 0 0 0 0 0 0 0 0 0 0 127 0" result="hardAlpha"/>
<feOffset dy="2"/>
<feGaussianBlur stdDeviation="5"/>
<feColorMatrix type="matrix" values="0 0 0 0 0 0 0 0 0 0 0 0 0 0 0 0 0 0 0.1 0"/>
<feBlend mode="normal" in2="BackgroundImageFix" result="effect1_dropShadow_3048_33250"/>
<feBlend mode="normal" in="SourceGraphic" in2="effect1_dropShadow_3048_33250" result="shape"/>
</filter>
</defs>
</svg>
