<svg width="93" height="92" viewBox="0 0 93 92" fill="none" xmlns="http://www.w3.org/2000/svg">
<g filter="url(#filter0_d_30_4388)">
<circle cx="46.3359" cy="44" r="36" fill="white"/>
</g>
<path d="M44.3794 52.7137C43.8837 53.2584 43.0404 53.2981 42.4958 52.8025C41.9512 52.3068 41.9115 51.4636 42.4071 50.9189L56.1827 35.7815C56.6783 35.2369 57.5216 35.1972 58.0662 35.6928C58.6109 36.1884 58.6506 37.0317 58.155 37.5763L44.3794 52.7137Z" fill="#1C1C1E"/>
<path d="M36.0454 44.8772C35.5825 44.3045 35.6716 43.465 36.2443 43.0021C36.817 42.5393 37.6565 42.6283 38.1194 43.201L44.4037 50.9764C44.8665 51.5491 44.7775 52.3886 44.2048 52.8515C43.6321 53.3144 42.7926 53.2254 42.3297 52.6527L36.0454 44.8772Z" fill="#1C1C1E"/>
<defs>
<filter id="filter0_d_30_4388" x="0.335938" y="0" width="92" height="92" filterUnits="userSpaceOnUse" color-interpolation-filters="sRGB">
<feFlood flood-opacity="0" result="BackgroundImageFix"/>
<feColorMatrix in="SourceAlpha" type="matrix" values="0 0 0 0 0 0 0 0 0 0 0 0 0 0 0 0 0 0 127 0" result="hardAlpha"/>
<feOffset dy="2"/>
<feGaussianBlur stdDeviation="5"/>
<feColorMatrix type="matrix" values="0 0 0 0 0 0 0 0 0 0 0 0 0 0 0 0 0 0 0.1 0"/>
<feBlend mode="normal" in2="BackgroundImageFix" result="effect1_dropShadow_30_4388"/>
<feBlend mode="normal" in="SourceGraphic" in2="effect1_dropShadow_30_4388" result="shape"/>
</filter>
</defs>
</svg>
