<svg width="31" height="31" viewBox="0 0 31 31" fill="none" xmlns="http://www.w3.org/2000/svg">
<path fill-rule="evenodd" clip-rule="evenodd" d="M9.00195 15.5C9.00195 16.6046 8.10652 17.5 7.00195 17.5C5.89738 17.5 5.00195 16.6046 5.00195 15.5C5.00195 14.3954 5.89738 13.5 7.00195 13.5C8.10652 13.5 9.00195 14.3954 9.00195 15.5ZM17.002 15.5C17.002 16.6046 16.1065 17.5 15.002 17.5C13.8974 17.5 13.002 16.6046 13.002 15.5C13.002 14.3954 13.8974 13.5 15.002 13.5C16.1065 13.5 17.002 14.3954 17.002 15.5ZM23.002 17.5C24.1065 17.5 25.002 16.6046 25.002 15.5C25.002 14.3954 24.1065 13.5 23.002 13.5C21.8974 13.5 21.002 14.3954 21.002 15.5C21.002 16.6046 21.8974 17.5 23.002 17.5Z" fill="white"/>
</svg>
