<svg width="30" height="30" viewBox="0 0 30 30" fill="none" xmlns="http://www.w3.org/2000/svg">
<path d="M0 15C0 6.71573 6.71573 0 15 0C23.2843 0 30 6.71573 30 15C30 23.2843 23.2843 30 15 30C6.71573 30 0 23.2843 0 15Z" fill="#F2F2F7"/>
<path d="M10.0493 18.1811C9.73828 18.4921 9.73193 19.0444 10.0557 19.3681C10.3857 19.6918 10.938 19.6855 11.2427 19.3808L15.0005 15.623L18.752 19.3745C19.0693 19.6918 19.6152 19.6918 19.939 19.3681C20.2627 19.038 20.2627 18.4985 19.9453 18.1811L16.1938 14.4296L19.9453 10.6718C20.2627 10.3544 20.269 9.80854 19.939 9.48481C19.6152 9.16108 19.0693 9.16108 18.752 9.47846L15.0005 13.2299L11.2427 9.47846C10.938 9.16743 10.3794 9.15473 10.0557 9.48481C9.73193 9.80854 9.73828 10.3671 10.0493 10.6718L13.8008 14.4296L10.0493 18.1811Z" fill="#3C3C43" fill-opacity="0.6"/>
</svg>
